<svg version="1.0" viewBox="0 0 130.49279 166.64583" xmlns="http://www.w3.org/2000/svg">
 <path fill="rgba(0, 0, 0, 0.2)" d="m2.5477 151.33c0.13843-4.6207 4.6015-6.4708 10.202-17.971 3.8-7.8 8.7-16.6 10.9-19.6 4.8-6.5 15-23.4 20.4-34 2.2-4.1 6-10.4 8.6-14l4.7-6.5 14.5-5.7c25.7-10.2 43.1-13.4 47.7-8.8 3.2 3.2 3 10.6-0.6 19.4-5.8 14.4-18.6 31-41.3 53.6-18.5 18.4-37.1 32.8-55.6 42.9-2.5 1.4-3.1 1.9-1.5 1.5 3.6-0.9 19.8-10.9 29.6-18.2 16.7-12.6 36.1-31.5 53-51.8 11.1-13.4 20.3-31.7 20.4-40.6 0-4.2-3.7-9.4-7.3-10.1-3.4-0.7-11.4 0.3-19.9 2.4-15.9 3.9-31.7 10.4-60.8 24.8l-21.244 10.655c-1.8128-6.5034-8.3284-13.611-14.305-16.411 11-19.4 34.449-55.545 44.049-60.045 7.1-3.3 20.3-3.8 30.2-1.2 8.3 2.3 11.3 3.7 26.5 12.9 18.5 11.2 22.6 14.2 25.8 19 3.6 5.5 4.3 9 3.8 18.6-0.3 6.7-0.9 8.6-5.6 17.8-9.9 19.4-25.9 39.3-46 56.9-15.3 13.4-30.9 24-50.8 34.4-5.9834 3.3814-10.018 6.9637-10.867 4.6534-0.84888-2.3103-14.682-9.6512-14.534-14.583z"/>
</svg>
