<svg version="1.0" viewBox="0 0 144.90857 160.97705" xmlns="http://www.w3.org/2000/svg">
 <path fill="rgba(0, 0, 0, 0.2)" d="m34.568 0c-3.7 0-4.9999 0.59951-7.8999 3.4995-2.3085 2.3085-3.4119 4.5127-2.9004 10.5l0.7002 7.0005h-3c-2.2 0-4.2997 1.1002-7.1997 3.7002-13.6 12.3-18.701 44-9.9009 62.6 2.8 6.1 3.7003 7.0001 9.3003 10.1 3.4 1.9 12 5.4999 19 7.8999l12.8 4.5 1.5996-3.3999c0.9-1.9 2.0009-3.3999 2.4009-3.3999 1.9 0 1.9 2.1999 0 4.8999-1.1 1.5-3.401 7.8003-5.001 13.8-3.1 11.3-6.6999 21.6-9.3999 26.7-0.9 1.6-1.299 3.4997-0.99902 4.1997 0.4 1.1-1.5013 1.4004-9.8013 1.4004-11.1 0-17.899 0.79951-17.899 1.9995 0 0.5 2.1995 1.2995 4.9995 1.9995 2.7 0.6 4.8007 1.7013 4.7007 2.3013 38.947 1.7237 59.101-0.20563 89.799-1.8003 10.427-1.4366 22.42-2.2013 33-7.8999 5.6671-3.9206 8.8422-6.4878 2.6997-5.6001-1.4846 0.21454-7.1998 0.89951-12.8 1.9995-5.5 1-15.4 2.2001-22 2.6001-10.6 0.6-11.8 0.5002-10.6-0.79981 1-1.3 1.0001-1.7002-0.3999-2.2002-0.8-0.3-2.2992-0.60059-3.1992-0.60059s-3.5012-0.8999-5.7012-1.8999c-2.2-1.1-4.7993-2.199-5.7993-2.499-2.7-0.79999-4.2003-5.5011-7.8003-24.101-4.6-24.5-4.5002-23.999-8.2002-26.399-1.7-1.2-5.2999-3.5994-7.8999-5.3994-5.7-3.9-10.8-7.0007-12.8-7.7007-0.8-0.3-3.8006-1.7999-6.6006-3.3999-5-2.9-5.1997-3.1995-5.6997-7.9995-0.3-2.8-0.09971-5.5 0.30029-6 0.5-0.4 2.8998 0.5998 5.2998 2.2998 2.5 1.7 5.3999 3.0996 6.3999 3.0996 2.8 0 7.4997-5.5 11.7-13.5 4.5748-8.6395 11.559-13.567 21.3-22.2 3.9082-2.9717 7.7664-7.6481 12.501-6.7998 3.8842-0.8827 5.9511-2.5248 6.1201-5.3906 0.04133-0.70118-4.84-9.7207-5.3906-9.6167-1.0593 0.2001-4.057 3.2787-4.2422 3.6182-1.0944 1.6726-3.1234 2.5718-5.688 3.3882-7.2646 6.3796-16.438 6.8282-21.1 7.9014-16.1 3.3-17.9 3.2992-17.9 0.19922 0-1.3 0.90059-3.4999 2.1006-4.8999 2.8-3.7 3.5-8.6995 1.5-12.5-2.2-4.3-5.4004-6.2007-10.4-6.2007zm55.235 11.969c0.64555-0.02415 1.4275 0.78792 2.165 2.5312 1.1562 2.7329 1.0445 3.9196-0.20068 3.999-2.9 2.2-3.3999 1.801-3.3999-2.499 0-2.5875 0.60556-4.0002 1.4356-4.0312zm-22.714 17.07c-0.01113 0.02092-0.08369 0.07365-0.22119 0.16114-1.1 0.7-3.2995 2.7004-4.9995 4.4004-6.6402 6.5549-11.801 15.807-20.102 19.712l-3.4849-3.271c-1.5015-4.2692-3.513-7.0418-2.313-11.842 0.6-2.2 0.8999-2.1996 7.8999-1.5996 7.3 0.7 7.3997 0.59951 16.2-4.0005 4.2-2.275 7.0989-3.7073 7.021-3.561zm-7.1265 92.208c0.32715-0.0615 0.40576 0.5166 0.40576 1.9541 0 1.4 1.7002 4.9999 3.7002 7.8999 3.3 4.7 3.7987 6.0992 3.6987 10.699-0.1 2.9-0.39873 5.6004-0.69873 5.9004-0.4 0.3-3.1007 0.80048-6.2007 1.0005-4.2 0.4-6.0993 0.0995-7.2993-1.0005-0.9-0.90001-2.9-1.9002-4.5-2.2002-1.5-0.4-2.7012-1.1992-2.7012-1.6992s2.6012-5.3011 5.7012-10.601c3.1-5.3 6.199-10.4 6.999-11.2 0.4125-0.45 0.69873-0.71601 0.89502-0.75293z"/>
</svg>
